# xmcd
#
# Track frame offsets:
#	150
#	17525
#	27715
#	39375
#	52408
#	69008
#	77523
#	89910
#	103723
#	123773
#	138180
#	147335
#	175345
#	186580
#	208685
#	222935
#	238943
#	252313
#	266035
#	284168
#	294513
#	304300
#	323435
#
# Disc length: 4535 seconds
#
# Revision: 1
# Processed by: cddbd v1.5.2PL0 Copyright (c) Steve Scherf et al.
# Submitted via: EasyCDDAExtractor 15.2.0.1
#
DISCID=6911b517
DTITLE=Баснер Вениамин - Белой акации гроздья душистые
DYEAR=2001
DGENRE=Retro
TTITLE0=Л. Сенчина - Белой акации гроздья душистые...
TTITLE1=ЛКО п/у А. Бадхена - Танец из оперетты “Год голубого зайца“
TTITLE2=М. Пахоменко - “От разлуки до разлуки" из к/ф “Тишина"
TTITLE3=Э. Хиль - “Середина лета“ из к/ф “Блокада"
TTITLE4=Э. Хиль, Л. Сенчина - "Та река, где ты родился" из к/ф "лед на земле"
TTITLE5=Л. Сенчина - Колыбельная из к/ф “Человек родился"
TTITLE6=Т. Калинченко - "Крестики-нолики" из к/ф "Оборона Севастополя"
TTITLE7=Хор мальчиков п/у Ф. Козлова - "Песня о рыжем щенке" из к/ф "Учитель п
TTITLE7=ения"
TTITLE8=ЛКО п/у А. Бадхена - "Тихая музыка" из к/ф "Водитель автобуса"
TTITLE9=Татьяна и Сергей Никитины - "Ты и я" из к/ф "Тревога"
TTITLE10=А. Миронов - Танго из к/ф "Владивосток, год 1918"
TTITLE11=ЭСО п/У А. Владимирцева - "Вальс-бостон" из к/ф "Опасный поворот"
TTITLE12=А. Миронов - "Это было недавно, это было давно" из к/ф "Друзья и годы
TTITLE12="
TTITLE13=В. Кривонос - "Вальс при свечах"
TTITLE14=Э. Хиль - "Ах, какие сегодня зарницы" из к/ф "Они были актерами"
TTITLE15=“Камертон"-квартет п/у Ю. Рейтмана - "Мексиканский танец" из к/ф "Род
TTITLE15=ная кровь"
TTITLE16=Е. Дриацкая, В. Кривонос - "Как я помню все это" из к/ф "Воскресный п
TTITLE16=апа"
TTITLE17=А. Миронов - "Парижский шарманщик"
TTITLE18=А. Тукиш - "Чистые росы" из к/ф "Город над головой"
TTITLE19=Л. Сенчина - "Не ищите ландышей" из к/ф "Последний шанс"
TTITLE20=Ансамбль РМИ п/у Э. Шейкмана - "Полька-дурочка" из к/ф "Цыган"
TTITLE21=Г. Ковалева - "Была судьба" из к/ф "Факты минувшего дня"
TTITLE22=В. Агафонов - "Белой акации гроздья душистые" романс из к/ф "Дни Турб
TTITLE22=иных"
EXTD=
EXTT0=
EXTT1=
EXTT2=
EXTT3=
EXTT4=
EXTT5=
EXTT6=
EXTT7=
EXTT8=
EXTT9=
EXTT10=
EXTT11=
EXTT12=
EXTT13=
EXTT14=
EXTT15=
EXTT16=
EXTT17=
EXTT18=
EXTT19=
EXTT20=
EXTT21=
EXTT22=
PLAYORDER=
